<?xml version="1.0" encoding="utf-8"?>
<!-- Generator: Adobe Illustrator 25.4.1, SVG Export Plug-In . SVG Version: 6.00 Build 0)  -->
<svg version="1.1" id="Layer_1" xmlns="http://www.w3.org/2000/svg" xmlns:xlink="http://www.w3.org/1999/xlink" x="0px" y="0px"
	 viewBox="0 0 576 216" style="enable-background:new 0 0 576 216;" xml:space="preserve">
<style type="text/css">
	.st0{fill:#FFFFFF;}
	.st1{fill:#75C044;}
	.st2{fill:none;stroke:#FFFFFF;stroke-width:2.0749;stroke-miterlimit:10;}
</style>
<g>
	<path class="st0" d="M350.9,166.1c0.4-0.4,0.9-0.6,1.5-0.8c0.6-0.2,1.1-0.3,1.7-0.3c0.6,0,1.1,0.1,1.5,0.2c0.4,0.1,0.8,0.3,1,0.6
		c0.3,0.2,0.5,0.5,0.6,0.8c0.1,0.3,0.2,0.6,0.2,0.9v3.8c0,0.3,0,0.5,0,0.7c0,0.2,0,0.4,0.1,0.6h-1.3c0-0.4-0.1-0.8-0.1-1.1h0
		c-0.3,0.5-0.7,0.8-1.2,1c-0.5,0.2-1,0.3-1.6,0.3c-0.4,0-0.7,0-1.1-0.1c-0.3-0.1-0.6-0.2-0.9-0.4c-0.3-0.2-0.5-0.4-0.6-0.7
		c-0.1-0.3-0.2-0.6-0.2-1c0-0.5,0.1-0.9,0.3-1.2c0.2-0.3,0.5-0.6,0.9-0.8c0.4-0.2,0.9-0.4,1.4-0.4s1.1-0.1,1.7-0.1h1.1v-0.3
		c0-0.2,0-0.4-0.1-0.6c-0.1-0.2-0.2-0.4-0.4-0.5c-0.2-0.2-0.4-0.3-0.6-0.4c-0.2-0.1-0.5-0.1-0.8-0.1c-0.3,0-0.5,0-0.8,0.1
		c-0.2,0.1-0.4,0.1-0.6,0.2c-0.2,0.1-0.3,0.2-0.5,0.3c-0.1,0.1-0.3,0.2-0.4,0.3L350.9,166.1z M355.2,169.1c-0.4,0-0.7,0-1.1,0.1
		c-0.4,0-0.7,0.1-1,0.2c-0.3,0.1-0.6,0.3-0.8,0.4s-0.3,0.4-0.3,0.7c0,0.4,0.2,0.7,0.5,0.9c0.3,0.2,0.7,0.3,1.3,0.3
		c0.4,0,0.8-0.1,1.1-0.2c0.3-0.1,0.5-0.3,0.7-0.5c0.2-0.2,0.3-0.4,0.4-0.7c0.1-0.3,0.1-0.5,0.1-0.8v-0.5H355.2z"/>
	<path class="st0" d="M359.4,165.2h1.5v1.2h0c0.2-0.4,0.5-0.7,1-1c0.5-0.2,1-0.4,1.6-0.4c0.4,0,0.7,0.1,1.1,0.2
		c0.4,0.1,0.7,0.3,0.9,0.5c0.3,0.2,0.5,0.5,0.6,0.9c0.2,0.4,0.2,0.8,0.2,1.3v4.8H365v-4.5c0-0.3-0.1-0.6-0.2-0.9
		c-0.1-0.2-0.2-0.5-0.4-0.6c-0.2-0.2-0.4-0.3-0.6-0.3c-0.2-0.1-0.4-0.1-0.7-0.1c-0.3,0-0.6,0-0.9,0.1c-0.3,0.1-0.5,0.2-0.7,0.5
		c-0.2,0.2-0.4,0.5-0.5,0.8c-0.1,0.3-0.2,0.7-0.2,1.1v3.9h-1.5V165.2z"/>
	<path class="st0" d="M372.8,162.5c0-0.3,0.1-0.5,0.3-0.7c0.2-0.2,0.5-0.3,0.8-0.3c0.3,0,0.6,0.1,0.8,0.3c0.2,0.2,0.3,0.5,0.3,0.7
		c0,0.3-0.1,0.5-0.3,0.7c-0.2,0.2-0.5,0.3-0.8,0.3c-0.3,0-0.6-0.1-0.8-0.3C372.9,163,372.8,162.8,372.8,162.5z M373.1,165.2h1.5v7.5
		h-1.5V165.2z"/>
	<path class="st0" d="M376.8,165.2h1.5v1.2h0c0.2-0.4,0.5-0.7,1-1c0.5-0.2,1-0.4,1.6-0.4c0.4,0,0.7,0.1,1.1,0.2
		c0.4,0.1,0.7,0.3,0.9,0.5c0.3,0.2,0.5,0.5,0.6,0.9c0.2,0.4,0.2,0.8,0.2,1.3v4.8h-1.5v-4.5c0-0.3-0.1-0.6-0.2-0.9
		c-0.1-0.2-0.2-0.5-0.4-0.6c-0.2-0.2-0.4-0.3-0.6-0.3c-0.2-0.1-0.4-0.1-0.7-0.1c-0.3,0-0.6,0-0.9,0.1c-0.3,0.1-0.5,0.2-0.7,0.5
		c-0.2,0.2-0.4,0.5-0.5,0.8c-0.1,0.3-0.2,0.7-0.2,1.1v3.9h-1.5V165.2z"/>
	<path class="st0" d="M388.9,162.9H385v-1.4h9.3v1.4h-3.8v9.8h-1.6V162.9z"/>
	<path class="st0" d="M395.8,161.5h7.7v1.4h-6.1v3.4h5.7v1.4h-5.7v3.6h6.4v1.4h-8V161.5z"/>
	<path class="st0" d="M406.3,170.4c0.3,0.4,0.7,0.7,1.1,0.9c0.5,0.2,0.9,0.3,1.4,0.3c0.3,0,0.5,0,0.8-0.1c0.3-0.1,0.5-0.2,0.8-0.4
		c0.2-0.2,0.4-0.4,0.6-0.6c0.1-0.2,0.2-0.5,0.2-0.8c0-0.4-0.1-0.8-0.4-1c-0.3-0.2-0.7-0.4-1.1-0.6c-0.4-0.2-0.9-0.3-1.4-0.4
		c-0.5-0.1-1-0.3-1.4-0.6c-0.4-0.3-0.8-0.6-1.1-1c-0.3-0.4-0.4-1-0.4-1.7c0-0.3,0.1-0.7,0.2-1c0.2-0.4,0.4-0.7,0.7-1
		c0.3-0.3,0.7-0.6,1.3-0.8s1.1-0.3,1.8-0.3c0.7,0,1.3,0.1,1.9,0.3c0.6,0.2,1.1,0.5,1.6,1l-1.3,1.1c-0.2-0.3-0.5-0.5-0.9-0.7
		c-0.4-0.2-0.8-0.3-1.3-0.3c-0.5,0-0.8,0.1-1.1,0.2c-0.3,0.1-0.5,0.3-0.7,0.4c-0.2,0.2-0.3,0.4-0.4,0.6c-0.1,0.2-0.1,0.4-0.1,0.6
		c0,0.5,0.1,0.8,0.4,1.1c0.3,0.3,0.7,0.5,1.1,0.6c0.4,0.2,0.9,0.3,1.4,0.4c0.5,0.1,1,0.3,1.4,0.5c0.4,0.2,0.8,0.5,1.1,0.9
		c0.3,0.4,0.4,0.9,0.4,1.6c0,0.5-0.1,1-0.3,1.5c-0.2,0.4-0.5,0.8-0.9,1.1c-0.4,0.3-0.8,0.5-1.3,0.7c-0.5,0.2-1,0.2-1.6,0.2
		c-0.8,0-1.5-0.1-2.2-0.4c-0.7-0.3-1.2-0.6-1.6-1.2L406.3,170.4z"/>
	<path class="st0" d="M417.6,162.9h-3.8v-1.4h9.3v1.4h-3.8v9.8h-1.6V162.9z"/>
	<path class="st0" d="M437.3,163.9c-0.3-0.4-0.8-0.7-1.3-1c-0.5-0.2-1.1-0.3-1.6-0.3c-0.7,0-1.3,0.1-1.8,0.4c-0.5,0.2-1,0.6-1.4,1
		c-0.4,0.4-0.7,0.9-0.9,1.5c-0.2,0.6-0.3,1.2-0.3,1.8c0,0.6,0.1,1.2,0.3,1.7c0.2,0.5,0.5,1,0.9,1.4s0.8,0.7,1.4,1
		c0.5,0.2,1.2,0.3,1.9,0.3c0.7,0,1.3-0.1,1.8-0.4c0.5-0.3,1-0.6,1.3-1.1l1.4,1c-0.1,0.1-0.2,0.3-0.5,0.5c-0.2,0.2-0.5,0.4-0.9,0.7
		c-0.4,0.2-0.8,0.4-1.3,0.6c-0.5,0.2-1.1,0.2-1.8,0.2c-0.9,0-1.8-0.2-2.6-0.5c-0.8-0.3-1.4-0.8-1.9-1.3c-0.5-0.6-0.9-1.2-1.2-1.9
		s-0.4-1.4-0.4-2.1c0-0.9,0.2-1.7,0.5-2.4c0.3-0.7,0.7-1.4,1.3-1.9c0.5-0.5,1.2-1,2-1.2c0.8-0.3,1.6-0.4,2.5-0.4
		c0.8,0,1.6,0.1,2.3,0.4c0.8,0.3,1.4,0.7,1.9,1.3L437.3,163.9z"/>
	<path class="st0" d="M439.9,168.9c0-0.6,0.1-1.1,0.3-1.5c0.2-0.5,0.5-0.9,0.9-1.3c0.4-0.4,0.8-0.6,1.3-0.8c0.5-0.2,1.1-0.3,1.7-0.3
		c0.6,0,1.2,0.1,1.7,0.3c0.5,0.2,1,0.5,1.3,0.8c0.4,0.4,0.7,0.8,0.9,1.3s0.3,1,0.3,1.5c0,0.6-0.1,1.1-0.3,1.5
		c-0.2,0.5-0.5,0.9-0.9,1.3c-0.4,0.4-0.8,0.6-1.3,0.8c-0.5,0.2-1.1,0.3-1.7,0.3c-0.6,0-1.2-0.1-1.7-0.3c-0.5-0.2-1-0.5-1.3-0.8
		c-0.4-0.4-0.7-0.8-0.9-1.3C440,170,439.9,169.5,439.9,168.9z M441.5,168.9c0,0.4,0.1,0.7,0.2,1.1c0.1,0.3,0.3,0.6,0.5,0.8
		c0.2,0.2,0.5,0.4,0.8,0.5c0.3,0.1,0.7,0.2,1.1,0.2c0.4,0,0.8-0.1,1.1-0.2c0.3-0.1,0.6-0.3,0.8-0.5c0.2-0.2,0.4-0.5,0.5-0.8
		c0.1-0.3,0.2-0.7,0.2-1.1c0-0.4-0.1-0.7-0.2-1.1c-0.1-0.3-0.3-0.6-0.5-0.8c-0.2-0.2-0.5-0.4-0.8-0.5c-0.3-0.1-0.7-0.2-1.1-0.2
		c-0.4,0-0.8,0.1-1.1,0.2c-0.3,0.1-0.6,0.3-0.8,0.5c-0.2,0.2-0.4,0.5-0.5,0.8C441.6,168.2,441.5,168.6,441.5,168.9z"/>
	<path class="st0" d="M450.1,165.2h1.4v1.2h0c0-0.1,0.1-0.2,0.3-0.4c0.1-0.2,0.3-0.3,0.5-0.5s0.5-0.3,0.8-0.4c0.3-0.1,0.6-0.2,1-0.2
		c0.6,0,1.1,0.1,1.5,0.3c0.4,0.2,0.7,0.6,1,1c0.3-0.5,0.6-0.8,1.1-1c0.5-0.2,0.9-0.3,1.4-0.3c0.6,0,1.1,0.1,1.5,0.3
		c0.4,0.2,0.7,0.4,0.9,0.8c0.2,0.3,0.4,0.7,0.5,1.1s0.1,0.8,0.1,1.2v4.4h-1.5v-4.2c0-0.3,0-0.6-0.1-0.8s-0.1-0.5-0.2-0.7
		c-0.1-0.2-0.3-0.4-0.5-0.5c-0.2-0.1-0.5-0.2-0.9-0.2c-0.7,0-1.3,0.2-1.6,0.6c-0.3,0.4-0.5,1-0.5,1.6v4.1h-1.5v-3.9
		c0-0.4,0-0.7-0.1-1c0-0.3-0.1-0.6-0.2-0.8c-0.1-0.2-0.3-0.4-0.5-0.5c-0.2-0.1-0.5-0.2-0.9-0.2c-0.3,0-0.5,0.1-0.8,0.2
		c-0.3,0.1-0.5,0.3-0.7,0.5c-0.2,0.2-0.3,0.5-0.5,0.8c-0.1,0.3-0.2,0.7-0.2,1.1v3.9h-1.5V165.2z"/>
	<path class="st0" d="M464.2,165.2h1.5v1.1h0c0.3-0.4,0.7-0.7,1.2-0.9s1-0.3,1.6-0.3c0.6,0,1.2,0.1,1.7,0.3c0.5,0.2,0.9,0.5,1.3,0.8
		c0.4,0.4,0.6,0.8,0.8,1.3c0.2,0.5,0.3,1,0.3,1.6c0,0.6-0.1,1.1-0.3,1.6c-0.2,0.5-0.5,0.9-0.8,1.3c-0.4,0.4-0.8,0.6-1.3,0.8
		c-0.5,0.2-1.1,0.3-1.7,0.3c-0.6,0-1.1-0.1-1.6-0.3c-0.5-0.2-0.9-0.5-1.2-0.9h0v5.6h-1.5V165.2z M468.3,166.3
		c-0.4,0-0.8,0.1-1.1,0.2c-0.3,0.1-0.6,0.3-0.8,0.5c-0.2,0.2-0.4,0.5-0.5,0.8c-0.1,0.3-0.2,0.7-0.2,1.1c0,0.4,0.1,0.7,0.2,1.1
		c0.1,0.3,0.3,0.6,0.5,0.8c0.2,0.2,0.5,0.4,0.8,0.5c0.3,0.1,0.7,0.2,1.1,0.2s0.8-0.1,1.1-0.2s0.6-0.3,0.8-0.5
		c0.2-0.2,0.4-0.5,0.5-0.8c0.1-0.3,0.2-0.7,0.2-1.1c0-0.4-0.1-0.7-0.2-1.1c-0.1-0.3-0.3-0.6-0.5-0.8c-0.2-0.2-0.5-0.4-0.8-0.5
		S468.8,166.3,468.3,166.3z"/>
	<path class="st0" d="M474.3,166.1c0.4-0.4,0.9-0.6,1.5-0.8c0.6-0.2,1.1-0.3,1.7-0.3c0.6,0,1.1,0.1,1.5,0.2c0.4,0.1,0.8,0.3,1,0.6
		c0.3,0.2,0.5,0.5,0.6,0.8c0.1,0.3,0.2,0.6,0.2,0.9v3.8c0,0.3,0,0.5,0,0.7c0,0.2,0,0.4,0.1,0.6h-1.3c0-0.4-0.1-0.8-0.1-1.1h0
		c-0.3,0.5-0.7,0.8-1.2,1c-0.5,0.2-1,0.3-1.6,0.3c-0.4,0-0.7,0-1.1-0.1c-0.3-0.1-0.6-0.2-0.9-0.4c-0.3-0.2-0.5-0.4-0.6-0.7
		c-0.1-0.3-0.2-0.6-0.2-1c0-0.5,0.1-0.9,0.3-1.2c0.2-0.3,0.5-0.6,0.9-0.8c0.4-0.2,0.9-0.4,1.4-0.4s1.1-0.1,1.7-0.1h1.1v-0.3
		c0-0.2,0-0.4-0.1-0.6c-0.1-0.2-0.2-0.4-0.4-0.5c-0.2-0.2-0.4-0.3-0.6-0.4c-0.2-0.1-0.5-0.1-0.8-0.1c-0.3,0-0.5,0-0.8,0.1
		c-0.2,0.1-0.4,0.1-0.6,0.2c-0.2,0.1-0.3,0.2-0.5,0.3c-0.1,0.1-0.3,0.2-0.4,0.3L474.3,166.1z M478.6,169.1c-0.4,0-0.7,0-1.1,0.1
		c-0.4,0-0.7,0.1-1,0.2c-0.3,0.1-0.6,0.3-0.8,0.4c-0.2,0.2-0.3,0.4-0.3,0.7c0,0.4,0.2,0.7,0.5,0.9c0.3,0.2,0.7,0.3,1.3,0.3
		c0.4,0,0.8-0.1,1.1-0.2c0.3-0.1,0.5-0.3,0.7-0.5c0.2-0.2,0.3-0.4,0.4-0.7c0.1-0.3,0.1-0.5,0.1-0.8v-0.5H478.6z"/>
	<path class="st0" d="M482.8,165.2h1.5v1.2h0c0.2-0.4,0.5-0.7,1-1c0.5-0.2,1-0.4,1.6-0.4c0.4,0,0.7,0.1,1.1,0.2
		c0.4,0.1,0.7,0.3,0.9,0.5c0.3,0.2,0.5,0.5,0.6,0.9c0.2,0.4,0.2,0.8,0.2,1.3v4.8h-1.5v-4.5c0-0.3-0.1-0.6-0.2-0.9
		c-0.1-0.2-0.2-0.5-0.4-0.6c-0.2-0.2-0.4-0.3-0.6-0.3c-0.2-0.1-0.4-0.1-0.7-0.1c-0.3,0-0.6,0-0.9,0.1c-0.3,0.1-0.5,0.2-0.7,0.5
		c-0.2,0.2-0.4,0.5-0.5,0.8c-0.1,0.3-0.2,0.7-0.2,1.1v3.9h-1.5V165.2z"/>
	<path class="st0" d="M491,165.2h1.8l2.4,5.9h0l2.3-5.9h1.6l-3.8,9.2c-0.1,0.3-0.3,0.6-0.4,0.9c-0.1,0.3-0.3,0.5-0.5,0.7
		c-0.2,0.2-0.4,0.3-0.7,0.4c-0.3,0.1-0.6,0.2-1,0.2c-0.2,0-0.5,0-0.7,0c-0.2,0-0.5-0.1-0.7-0.2l0.2-1.3c0.3,0.1,0.6,0.2,0.9,0.2
		c0.2,0,0.4,0,0.6-0.1c0.2-0.1,0.3-0.1,0.4-0.3c0.1-0.1,0.2-0.2,0.3-0.4c0.1-0.1,0.2-0.3,0.2-0.5l0.5-1.2L491,165.2z"/>
</g>
<polygon class="st0" points="198,81 181.5,37.1 172.8,37.1 194.1,93 201.7,93 223.1,37.1 214.4,37.1 "/>
<rect x="226.4" y="55.2" class="st0" width="7.8" height="37.8"/>
<path class="st0" d="M226.9,41.2c-1,0.9-1.6,2.2-1.6,3.6c0,1.4,0.5,2.7,1.6,3.6c1,0.9,2.1,1.4,3.4,1.4s2.4-0.5,3.4-1.4
	c1-0.9,1.6-2.2,1.6-3.6c0-1.4-0.5-2.7-1.6-3.6C231.6,39.4,228.9,39.4,226.9,41.2z"/>
<path class="st0" d="M272,59c-1.2-1.2-2.6-2.1-4.1-2.9c-2.6-1.3-5.3-1.9-8-1.9c-2.9,0-5.6,0.5-8,1.5c-2.4,1-4.5,2.4-6.2,4.2
	c-1.7,1.8-3,3.9-4,6.3c-0.9,2.4-1.4,5-1.4,7.8c0,2.8,0.5,5.4,1.4,7.8c0.9,2.4,2.3,4.5,4,6.3c1.7,1.8,3.8,3.2,6.2,4.2
	c2.4,1,5.1,1.5,8,1.5c2.7,0,5.4-0.6,8-1.9c1.5-0.7,2.9-1.7,4.1-2.8V93h7.8V33.5H272V59z M269.1,64.9c1.1,1.1,1.9,2.5,2.5,4.1
	c0.6,1.6,0.9,3.3,0.9,5.1c0,1.8-0.3,3.5-0.9,5.1c-0.6,1.6-1.5,2.9-2.5,4c-1.1,1.1-2.4,2-3.9,2.7c-1.5,0.6-3.1,1-4.9,1
	c-1.9,0-3.6-0.3-5.1-1c-1.5-0.6-2.7-1.5-3.7-2.7c-1-1.1-1.8-2.5-2.3-4.1c-0.5-1.6-0.8-3.3-0.8-5.1c0-1.8,0.3-3.5,0.8-5.1
	c0.5-1.6,1.3-2.9,2.3-4.1c1-1.1,2.2-2,3.7-2.7c1.5-0.7,3.2-1,5.1-1c1.8,0,3.4,0.3,4.9,1C266.7,62.8,268,63.8,269.1,64.9z"/>
<path class="st0" d="M319.4,59.9c-1.5-1.7-3.4-3.1-5.7-4.1c-2.3-1-4.9-1.5-7.8-1.5c-2.7,0-5.2,0.5-7.5,1.5c-2.3,1-4.3,2.4-6.1,4.2
	c-1.7,1.8-3.1,3.9-4,6.3c-1,2.4-1.4,5-1.4,7.9c0,2.8,0.5,5.5,1.5,7.9c1,2.4,2.4,4.5,4.1,6.3c1.7,1.8,3.8,3.2,6.2,4.2
	c2.4,1,5,1.5,7.8,1.5c3.1,0,6-0.6,8.7-1.8c2.7-1.2,5.2-3.3,7.4-6.1l0.8-1.1l-6.1-4.8l-0.8,1.3c-0.9,1.4-2.2,2.7-4,3.8
	c-1.7,1.1-3.8,1.6-6.2,1.6c-1.6,0-3.1-0.3-4.5-0.9c-1.4-0.6-2.6-1.4-3.6-2.5c-1-1-1.8-2.2-2.4-3.6c-0.4-1-0.7-2-0.8-3.1h28.9
	l0.1-1.2c0.1-0.5,0.1-1,0.1-1.4V73c0-2.5-0.4-5-1.2-7.2C322,63.6,320.9,61.6,319.4,59.9z M295,70c0.2-0.8,0.4-1.6,0.8-2.4
	c0.6-1.2,1.4-2.3,2.4-3.3c1-1,2.1-1.7,3.4-2.3c1.3-0.6,2.7-0.8,4.2-0.8c3.3,0,5.7,0.9,7.5,2.8c1.5,1.6,2.4,3.6,2.7,6H295z"/>
<path class="st0" d="M364.4,59.9c-1.8-1.8-3.9-3.2-6.4-4.2c-2.5-1-5.2-1.5-8.1-1.5c-2.9,0-5.6,0.5-8,1.5c-2.5,1-4.6,2.4-6.4,4.2
	c-1.8,1.8-3.2,3.9-4.2,6.3c-1,2.4-1.5,5.1-1.5,7.9c0,2.8,0.5,5.5,1.5,7.9c1,2.4,2.4,4.5,4.2,6.3c1.8,1.8,3.9,3.2,6.4,4.2
	c2.5,1,5.1,1.5,8,1.5c2.9,0,5.6-0.5,8.1-1.5c2.5-1,4.6-2.4,6.4-4.2c1.8-1.8,3.2-3.9,4.2-6.3c1-2.4,1.5-5.1,1.5-7.9
	c0-2.8-0.5-5.5-1.5-7.9C367.6,63.8,366.2,61.7,364.4,59.9z M362,74.1c0,1.8-0.3,3.5-0.9,5.1c-0.6,1.6-1.4,2.9-2.4,4.1
	c-1,1.1-2.3,2-3.8,2.7c-1.5,0.6-3.2,1-5,1c-1.9,0-3.5-0.3-5-1c-1.4-0.6-2.7-1.5-3.7-2.7c-1-1.1-1.8-2.5-2.4-4.1
	c-0.6-1.6-0.9-3.3-0.9-5.1c0-1.8,0.3-3.5,0.9-5.1c0.6-1.6,1.4-2.9,2.4-4.1c1-1.1,2.3-2.1,3.7-2.7c1.4-0.7,3.1-1,5-1
	c1.8,0,3.5,0.3,5,1c1.5,0.7,2.7,1.6,3.8,2.7c1,1.1,1.8,2.5,2.4,4.1C361.7,70.6,362,72.3,362,74.1z"/>
<rect x="377" y="33.5" class="st0" width="7.8" height="59.5"/>
<path class="st0" d="M426.3,59.9c-1.8-1.8-3.9-3.2-6.4-4.2c-2.5-1-5.2-1.5-8.1-1.5c-2.9,0-5.6,0.5-8,1.5c-2.5,1-4.6,2.4-6.4,4.2
	c-1.8,1.8-3.2,3.9-4.2,6.3c-1,2.4-1.5,5.1-1.5,7.9c0,2.8,0.5,5.5,1.5,7.9c1,2.4,2.4,4.5,4.2,6.3c1.8,1.8,3.9,3.2,6.4,4.2
	c2.5,1,5.1,1.5,8,1.5c2.9,0,5.6-0.5,8.1-1.5c2.5-1,4.6-2.4,6.4-4.2c1.8-1.8,3.2-3.9,4.2-6.3c1-2.4,1.5-5.1,1.5-7.9
	c0-2.8-0.5-5.5-1.5-7.9C429.5,63.8,428.1,61.7,426.3,59.9z M423.9,74.1c0,1.8-0.3,3.5-0.9,5.1c-0.6,1.6-1.4,2.9-2.4,4.1
	c-1,1.1-2.3,2-3.8,2.7c-1.5,0.6-3.2,1-5,1c-1.9,0-3.5-0.3-5-1c-1.4-0.6-2.7-1.5-3.7-2.7c-1-1.1-1.8-2.5-2.4-4.1
	c-0.6-1.6-0.9-3.3-0.9-5.1c0-1.8,0.3-3.5,0.9-5.1c0.6-1.6,1.4-2.9,2.4-4.1c1-1.1,2.3-2.1,3.7-2.7c1.4-0.7,3.1-1,5-1
	c1.8,0,3.5,0.3,5,1c1.5,0.7,2.7,1.6,3.8,2.7c1,1.1,1.8,2.5,2.4,4.1C423.6,70.6,423.9,72.3,423.9,74.1z"/>
<path class="st0" d="M469.3,59c-1.2-1.1-2.5-2-4-2.8c-2.6-1.3-5.4-1.9-8.1-1.9c-2.9,0-5.6,0.5-8,1.5c-2.4,1-4.5,2.4-6.2,4.2
	c-1.7,1.8-3,3.9-4,6.2c-0.9,2.4-1.4,4.9-1.4,7.6c0,2.7,0.5,5.3,1.4,7.6c0.9,2.4,2.3,4.4,4,6.1c1.7,1.7,3.8,3,6.2,4
	c2.4,1,5.1,1.4,8,1.4c2.7,0,5.5-0.7,8.1-1.9c1.5-0.7,2.8-1.6,4-2.7v3c0,1.8-0.2,3.4-0.7,5c-0.4,1.5-1.1,2.8-2.1,3.9
	c-0.9,1.1-2.2,2-3.7,2.6c-1.6,0.7-3.6,1-5.9,1c-2.5,0-4.9-0.6-7.1-1.7c-2.2-1.2-4-2.6-5.3-4.2l-1-1.2l-5.6,6l0.9,0.9
	c2.2,2.3,4.9,4.2,8,5.5c3.1,1.3,6.4,2,9.8,2c4.1,0,7.5-0.7,10.1-1.9c2.6-1.3,4.7-2.9,6.3-4.9c1.5-1.9,2.6-4.1,3.2-6.4
	c0.5-2.2,0.8-4.4,0.8-6.4V55.2h-7.8V59z M466.5,64.9c1.1,1.1,1.9,2.4,2.5,3.9c0.6,1.5,0.9,3.1,0.9,4.8c0,1.9-0.3,3.6-0.9,5.1
	c-0.6,1.5-1.5,2.8-2.5,3.9c-1.1,1.1-2.4,1.9-3.8,2.5c-1.5,0.6-3.1,0.9-4.9,0.9c-1.9,0-3.6-0.3-5.1-1c-1.5-0.6-2.7-1.5-3.7-2.6
	c-1-1.1-1.8-2.4-2.3-3.9c-0.5-1.5-0.8-3.1-0.8-4.8s0.3-3.3,0.8-4.8c0.5-1.5,1.3-2.8,2.3-3.9c1-1.1,2.3-2,3.7-2.7
	c1.5-0.7,3.2-1,5.1-1c1.8,0,3.4,0.3,4.9,1C464.1,62.9,465.4,63.8,466.5,64.9z"/>
<path class="st0" d="M511.3,55.2l-10.1,27.5l-11.1-27.5h-8.6l15.6,36.4l-2.7,6.9c-0.7,1.8-1.5,3.2-2.4,4.2c-0.7,0.8-1.8,1.2-3.2,1.2
	c-1.1,0-2.3-0.2-3.3-0.5l-1.6-0.5l-0.8,7.5l1.2,0.2c1.6,0.3,3.2,0.5,4.8,0.5c3.4,0,6.1-1,8-2.8c1.8-1.8,3.2-4.1,4.3-7l18.2-46.1
	H511.3z"/>
<g>
	<path class="st0" d="M508.7,104.6c0-1,0.2-1.9,0.6-2.8c0.4-0.9,0.9-1.6,1.5-2.3c0.6-0.6,1.4-1.1,2.3-1.5c0.9-0.4,1.8-0.6,2.8-0.6
		c1,0,1.9,0.2,2.8,0.6c0.9,0.4,1.6,0.9,2.3,1.5c0.6,0.6,1.2,1.4,1.5,2.3c0.4,0.9,0.6,1.8,0.6,2.8c0,1-0.2,1.9-0.6,2.8
		c-0.4,0.9-0.9,1.6-1.5,2.2c-0.7,0.6-1.4,1.1-2.3,1.5c-0.9,0.4-1.8,0.6-2.8,0.6c-1,0-1.9-0.2-2.8-0.6c-0.9-0.4-1.6-0.9-2.3-1.5
		c-0.7-0.6-1.2-1.4-1.5-2.2C508.9,106.5,508.7,105.6,508.7,104.6z M509.8,104.6c0,0.8,0.2,1.6,0.5,2.3c0.3,0.7,0.7,1.4,1.3,1.9
		c0.5,0.6,1.2,1,1.9,1.3c0.7,0.3,1.5,0.5,2.4,0.5c0.8,0,1.6-0.2,2.4-0.5c0.7-0.3,1.4-0.7,1.9-1.3c0.5-0.6,1-1.2,1.3-1.9
		c0.3-0.7,0.5-1.5,0.5-2.3c0-0.8-0.2-1.6-0.5-2.4c-0.3-0.7-0.7-1.4-1.3-1.9c-0.5-0.5-1.2-1-1.9-1.3c-0.7-0.3-1.5-0.5-2.4-0.5
		c-0.8,0-1.6,0.2-2.4,0.5c-0.7,0.3-1.4,0.7-1.9,1.3c-0.5,0.5-1,1.2-1.3,1.9C510,103,509.8,103.8,509.8,104.6z M513,100.6h2.8
		c0.4,0,0.7,0,1.1,0.1c0.4,0.1,0.7,0.2,1,0.4c0.3,0.2,0.5,0.4,0.7,0.7c0.2,0.3,0.3,0.7,0.3,1.1c0,0.6-0.2,1.1-0.5,1.4
		c-0.3,0.4-0.8,0.6-1.4,0.7l2.2,3.5h-1.8l-1.9-3.4h-1v3.4H513V100.6z M515.6,104.1c0.4,0,0.8-0.1,1.2-0.2c0.4-0.2,0.6-0.5,0.6-1
		c0-0.4-0.2-0.7-0.5-0.9c-0.3-0.1-0.7-0.2-1.1-0.2h-1.3v2.3H515.6z"/>
</g>
<g>
	<rect x="203.8" y="125.3" class="st1" width="2.2" height="20.5"/>
	<path class="st1" d="M216.4,131.8c-0.9,0-1.7,0.3-2.5,0.8c-0.6,0.4-1,0.8-1.3,1.3c0-0.1,0-0.2,0-0.3c0-0.4,0-0.8-0.1-1.2l0-0.2
		h-2.1l0,0.2c0,0.5,0.1,1,0.1,1.5c0,0.6,0,1,0,1.4v10.6h2.1v-7c0-0.9,0.1-1.6,0.3-2.2c0.2-0.6,0.4-1.1,0.8-1.5
		c0.3-0.4,0.7-0.7,1.1-0.9c0.4-0.2,0.8-0.3,1.2-0.3c0.6,0,1,0.1,1.4,0.3c0.4,0.2,0.7,0.5,0.9,0.9c0.2,0.4,0.4,0.8,0.5,1.4
		c0.1,0.6,0.1,1.2,0.1,1.9v7.6h2.1v-8.4c0-1.7-0.4-3.1-1.1-4.1C219.1,132.3,217.9,131.8,216.4,131.8z"/>
	<path class="st1" d="M234.9,134c-0.5-0.6-1-1.1-1.7-1.5c-0.8-0.5-1.7-0.7-2.6-0.7c-0.9,0-1.8,0.2-2.6,0.6c-0.8,0.4-1.4,0.9-2,1.5
		c-0.5,0.6-1,1.4-1.3,2.3c-0.3,0.9-0.4,1.8-0.4,2.8c0,1,0.2,2,0.4,2.8c0.3,0.9,0.7,1.6,1.3,2.3c0.5,0.6,1.2,1.2,2,1.5
		c0.8,0.4,1.6,0.6,2.6,0.6c0.9,0,1.7-0.2,2.6-0.7c0.6-0.4,1.2-0.8,1.7-1.5v1.8h2.1v-21.9h-2.1V134z M233.9,135.3
		c0.4,0.5,0.7,1,0.9,1.6c0.2,0.6,0.3,1.3,0.3,2c0,0.7-0.1,1.4-0.3,2c-0.2,0.6-0.5,1.2-0.9,1.6c-0.4,0.4-0.8,0.8-1.3,1.1
		c-0.5,0.3-1.1,0.4-1.7,0.4c-0.7,0-1.3-0.1-1.8-0.4c-0.5-0.3-1-0.6-1.3-1.1c-0.4-0.5-0.6-1-0.8-1.6c-0.2-0.6-0.3-1.3-0.3-2
		s0.1-1.4,0.3-2c0.2-0.6,0.5-1.2,0.8-1.6c0.4-0.5,0.8-0.8,1.3-1.1c0.5-0.3,1.1-0.4,1.8-0.4c0.6,0,1.2,0.1,1.7,0.4
		C233.1,134.5,233.5,134.8,233.9,135.3z"/>
	<path class="st1" d="M251.9,144.1c0-0.6,0-1,0-1.4v-10.6h-2.1v7c0,0.9-0.1,1.6-0.3,2.2c-0.2,0.6-0.4,1.1-0.8,1.5
		c-0.3,0.4-0.7,0.7-1.1,0.9c-0.4,0.2-0.8,0.3-1.2,0.3c-0.6,0-1-0.1-1.4-0.3c-0.4-0.2-0.7-0.5-0.9-0.9c-0.2-0.4-0.4-0.8-0.5-1.4
		c-0.1-0.5-0.1-1.2-0.1-1.9v-7.6h-2.1v8.4c0,1.7,0.4,3.1,1.1,4.1c0.8,1.1,2,1.6,3.5,1.6c0.9,0,1.7-0.3,2.5-0.8
		c0.6-0.4,1-0.8,1.3-1.3c0,0.1,0,0.2,0,0.3c0,0.4,0,0.8,0.1,1.2l0,0.2h2.1l0-0.2C252,145.2,252,144.6,251.9,144.1z"/>
	<path class="st1" d="M260.2,137.7c-0.9-0.2-1.6-0.5-2-0.8c-0.4-0.3-0.6-0.7-0.6-1.3c0-0.3,0.1-0.6,0.2-0.8c0.1-0.2,0.3-0.4,0.5-0.6
		c0.2-0.2,0.4-0.3,0.7-0.3c0.3-0.1,0.6-0.1,0.8-0.1c0.6,0,1.1,0.2,1.6,0.5c0.5,0.3,0.8,0.7,1.1,1.3l0.1,0.3l1.6-1.4l-0.1-0.2
		c-0.4-0.8-1-1.4-1.8-1.9c-1.3-0.7-2.8-0.8-4.1-0.4c-0.5,0.2-1,0.4-1.4,0.7c-0.4,0.3-0.7,0.8-1,1.3c-0.2,0.5-0.4,1.1-0.4,1.8
		c0,0.7,0.1,1.2,0.3,1.7c0.2,0.4,0.5,0.8,0.9,1.1c0.3,0.3,0.7,0.5,1.1,0.7c0.4,0.1,0.8,0.3,1.1,0.4c1.1,0.3,1.9,0.6,2.5,1
		c0.5,0.3,0.8,0.8,0.8,1.4c0,0.4-0.1,0.7-0.2,1c-0.1,0.3-0.3,0.5-0.5,0.6c-0.2,0.2-0.5,0.3-0.8,0.4c-0.3,0.1-0.6,0.1-1,0.1
		c-0.6,0-1.2-0.2-1.8-0.6c-0.5-0.4-1-0.8-1.2-1.4l-0.1-0.3l-1.7,1.4l0.1,0.2c0.5,0.9,1.3,1.6,2.1,2c0.9,0.4,1.7,0.6,2.7,0.6
		c0.5,0,1.1-0.1,1.6-0.2c0.5-0.1,1-0.4,1.5-0.8s0.8-0.8,1.1-1.4c0.3-0.5,0.4-1.2,0.4-2c0-1.1-0.4-2-1.1-2.6
		C262.7,138.6,261.6,138.1,260.2,137.7z"/>
	<path class="st1" d="M273,143.5c-0.2,0.1-0.4,0.2-0.7,0.3c-0.5,0.1-0.9,0.1-1.3,0c-0.2-0.1-0.3-0.2-0.5-0.3
		c-0.1-0.2-0.2-0.4-0.3-0.7c-0.1-0.3-0.1-0.7-0.1-1.2v-7.5h3.3v-2.1h-3.3v-3.7H268v3.7h-2.4v2.1h2.4v8.1c0,0.8,0.1,1.4,0.3,1.9
		c0.2,0.5,0.5,0.9,0.8,1.2c0.3,0.3,0.7,0.5,1.1,0.6c0.4,0.1,0.7,0.1,1.1,0.1c0.4,0,0.8,0,1.1-0.1c0.3-0.1,0.7-0.2,1-0.3l0.1-0.1
		l-0.1-2.2L273,143.5z"/>
	<path class="st1" d="M282.2,131.8c-0.2,0-0.4,0-0.6,0c-0.9,0-1.7,0.3-2.4,0.8c-0.5,0.4-0.9,0.8-1.2,1.3c0-0.1,0-0.2,0-0.3
		c0-0.4,0-0.8-0.1-1.2l0-0.2h-2.1l0,0.2c0,0.5,0.1,1,0.1,1.5c0,0.6,0,1,0,1.4v10.6h2.1v-7c0-0.9,0.1-1.6,0.3-2.2
		c0.2-0.6,0.4-1.1,0.7-1.5c0.3-0.4,0.6-0.7,1-0.8c0.6-0.3,1.2-0.3,1.9-0.2c0.2,0,0.4,0.1,0.5,0.1l0.3,0.1l0.3-2.3l-0.2-0.1
		C282.6,131.9,282.4,131.8,282.2,131.8z"/>
	<rect x="285.3" y="132.1" class="st1" width="2.1" height="13.7"/>
	<path class="st1" d="M285.4,126.1c-0.3,0.3-0.4,0.7-0.4,1.1c0,0.5,0.1,0.8,0.4,1.1c0.3,0.3,0.6,0.5,1,0.5c0.4,0,0.7-0.2,1-0.5
		c0.3-0.3,0.4-0.7,0.4-1.1c0-0.5-0.1-0.8-0.4-1.1C286.8,125.5,286,125.5,285.4,126.1z"/>
	<path class="st1" d="M301.3,144.2c0-0.5,0-1.1,0-1.6v-5.8c0-0.8-0.1-1.6-0.4-2.2c-0.2-0.6-0.6-1.2-1-1.6c-0.4-0.4-0.9-0.7-1.5-0.9
		c-0.6-0.2-1.2-0.3-1.8-0.3c-1,0-1.9,0.2-2.8,0.6c-0.8,0.4-1.5,0.8-2,1.4l-0.1,0.1l1.2,1.6l0.2-0.2c0.4-0.4,0.9-0.8,1.4-1.1
		c0.6-0.3,1.2-0.4,1.8-0.4c0.9,0,1.7,0.3,2.1,0.8c0.5,0.5,0.7,1.3,0.7,2.4v0.2c-1,0-1.9,0-2.9,0.1c-1,0.1-1.9,0.3-2.7,0.6
		c-0.8,0.3-1.4,0.8-1.9,1.4c-0.5,0.6-0.7,1.5-0.7,2.6c0,0.8,0.1,1.4,0.4,2c0.3,0.5,0.6,1,1,1.3c0.4,0.3,0.9,0.6,1.4,0.7
		c0.5,0.1,1,0.2,1.4,0.2c1,0,1.8-0.2,2.5-0.6c0.6-0.3,1.1-0.8,1.5-1.5c0,0.2,0,0.3,0,0.5c0,0.4,0.1,0.7,0.1,1.1l0,0.2h2l0-0.3
		C301.3,145.2,301.3,144.7,301.3,144.2z M299.2,139.2v0.8c0,0.6-0.1,1.1-0.2,1.6c-0.2,0.5-0.4,1-0.7,1.3c-0.3,0.4-0.7,0.7-1.1,0.9
		c-0.7,0.3-1.6,0.4-2.4,0.2c-0.3-0.1-0.6-0.2-0.8-0.4c-0.2-0.2-0.4-0.4-0.6-0.7c-0.1-0.3-0.2-0.7-0.2-1.1c0-0.6,0.2-1,0.5-1.4
		c0.3-0.4,0.8-0.6,1.3-0.8c0.6-0.2,1.2-0.3,1.9-0.4c0.7-0.1,1.4-0.1,2.1-0.1H299.2z"/>
	<rect x="305.5" y="123.9" class="st1" width="2.1" height="21.9"/>
	<rect x="311.1" y="137.7" class="st1" width="6" height="2.1"/>
	<path class="st1" d="M329.4,137.1h4.1v5.8c-0.5,0.3-1.1,0.6-1.9,0.8c-0.8,0.2-1.7,0.4-2.7,0.4c-1.1,0-2.1-0.2-2.9-0.7
		c-0.9-0.5-1.6-1.1-2.2-1.8c-0.6-0.8-1.1-1.7-1.4-2.7c-0.3-1-0.5-2.1-0.5-3.3c0-1.1,0.2-2.2,0.5-3.3c0.3-1,0.8-1.9,1.4-2.7
		c0.6-0.8,1.4-1.4,2.2-1.9c0.9-0.5,1.9-0.7,2.9-0.7c1.1,0,2,0.2,2.8,0.6c0.8,0.4,1.5,0.9,2.1,1.7l0.2,0.2l1.5-1.8l-0.1-0.1
		c-0.8-0.9-1.7-1.6-2.8-2.1c-1.1-0.5-2.3-0.7-3.8-0.7c-1.3,0-2.6,0.3-3.7,0.8c-1.1,0.5-2.1,1.3-3,2.3c-0.8,1-1.5,2.1-2,3.4
		c-0.5,1.3-0.7,2.8-0.7,4.3c0,1.6,0.2,3,0.7,4.3c0.5,1.3,1.1,2.5,1.9,3.4c0.8,1,1.8,1.7,3,2.3c1.2,0.5,2.4,0.8,3.8,0.8
		c1.2,0,2.4-0.2,3.5-0.5c1.1-0.3,2.2-0.8,3.2-1.5l0.1-0.1v-9.4h-6.3V137.1z"/>
	<path class="st1" d="M346.4,131.8c-0.2,0-0.4,0-0.6,0c-0.9,0-1.7,0.3-2.4,0.8c-0.5,0.4-0.9,0.8-1.2,1.3c0-0.1,0-0.2,0-0.3
		c0-0.4,0-0.8-0.1-1.2l0-0.2H340l0,0.2c0,0.5,0.1,1,0.1,1.5c0,0.6,0,1,0,1.4v10.6h2.1v-7c0-0.9,0.1-1.6,0.3-2.2
		c0.2-0.6,0.4-1.1,0.7-1.5c0.3-0.4,0.6-0.7,1-0.8c0.6-0.3,1.2-0.3,1.9-0.2c0.2,0,0.4,0.1,0.5,0.1l0.3,0.1l0.3-2.3l-0.2-0.1
		C346.7,131.9,346.6,131.8,346.4,131.8z"/>
	<path class="st1" d="M358.6,144.2c0-0.5,0-1.1,0-1.6v-5.8c0-0.8-0.1-1.6-0.4-2.2c-0.2-0.6-0.6-1.2-1-1.6c-0.4-0.4-0.9-0.7-1.5-0.9
		c-0.6-0.2-1.2-0.3-1.8-0.3c-1,0-1.9,0.2-2.8,0.6c-0.8,0.4-1.5,0.8-2,1.4l-0.1,0.1l1.2,1.6l0.2-0.2c0.4-0.4,0.9-0.8,1.4-1.1
		c0.6-0.3,1.2-0.4,1.8-0.4c0.9,0,1.7,0.3,2.1,0.8c0.5,0.5,0.7,1.3,0.7,2.4v0.2c-1,0-1.9,0-2.9,0.1c-1,0.1-1.9,0.3-2.7,0.6
		c-0.8,0.3-1.4,0.8-1.9,1.4c-0.5,0.6-0.7,1.5-0.7,2.6c0,0.8,0.1,1.4,0.4,2c0.3,0.5,0.6,1,1,1.3c0.4,0.3,0.9,0.6,1.4,0.7
		c0.5,0.1,1,0.2,1.4,0.2c1,0,1.8-0.2,2.5-0.6c0.6-0.3,1.1-0.8,1.5-1.5c0,0.2,0,0.3,0,0.5c0,0.4,0.1,0.7,0.1,1.1l0,0.2h2l0-0.3
		C358.6,145.2,358.6,144.8,358.6,144.2z M356.5,139.2v0.8c0,0.6-0.1,1.1-0.2,1.6c-0.2,0.5-0.4,1-0.7,1.3c-0.3,0.4-0.7,0.7-1.1,0.9
		c-0.7,0.3-1.6,0.4-2.4,0.2c-0.3-0.1-0.6-0.2-0.8-0.4c-0.2-0.2-0.4-0.4-0.6-0.7c-0.1-0.3-0.2-0.7-0.2-1.1c0-0.6,0.2-1,0.5-1.4
		c0.3-0.4,0.8-0.6,1.3-0.8c0.6-0.2,1.2-0.3,1.9-0.4c0.7-0.1,1.4-0.1,2.1-0.1H356.5z"/>
	<path class="st1" d="M372.4,134c-0.5-0.6-1-1.1-1.7-1.5c-0.8-0.5-1.7-0.7-2.6-0.7c-0.9,0-1.8,0.2-2.6,0.6c-0.8,0.4-1.4,0.9-2,1.5
		c-0.5,0.6-1,1.4-1.3,2.3c-0.3,0.9-0.4,1.8-0.4,2.8c0,1,0.2,2,0.4,2.8c0.3,0.9,0.7,1.6,1.3,2.3c0.5,0.6,1.2,1.2,2,1.5
		c0.8,0.4,1.6,0.6,2.6,0.6c0.9,0,1.7-0.2,2.6-0.7c0.6-0.4,1.2-0.8,1.7-1.5v1.8h2.1v-21.9h-2.1V134z M371.4,135.3
		c0.4,0.5,0.7,1,0.9,1.6c0.2,0.6,0.3,1.3,0.3,2c0,0.7-0.1,1.4-0.3,2c-0.2,0.6-0.5,1.2-0.9,1.6c-0.4,0.4-0.8,0.8-1.3,1.1
		c-0.5,0.3-1.1,0.4-1.7,0.4c-0.7,0-1.3-0.1-1.8-0.4c-0.5-0.3-1-0.6-1.3-1.1c-0.4-0.5-0.6-1-0.8-1.6c-0.2-0.6-0.3-1.3-0.3-2
		c0-0.7,0.1-1.4,0.3-2c0.2-0.6,0.5-1.2,0.8-1.6c0.3-0.5,0.8-0.8,1.3-1.1c0.5-0.3,1.1-0.4,1.8-0.4c0.6,0,1.2,0.1,1.7,0.4
		C370.6,134.5,371,134.8,371.4,135.3z"/>
	<path class="st1" d="M388.5,133.8c-0.5-0.6-1.1-1.1-1.8-1.5c-0.7-0.4-1.6-0.5-2.5-0.5c-0.9,0-1.7,0.2-2.4,0.5
		c-0.7,0.4-1.4,0.9-1.9,1.5c-0.5,0.6-1,1.4-1.3,2.3c-0.3,0.9-0.5,1.8-0.5,2.9c0,1,0.2,2,0.5,2.9c0.3,0.9,0.7,1.6,1.3,2.3
		c0.5,0.6,1.2,1.2,2,1.5c0.8,0.4,1.6,0.5,2.5,0.5c1,0,1.9-0.2,2.8-0.7c0.9-0.5,1.7-1.2,2.4-2.2l0.1-0.2l-1.6-1.5l-0.1,0.2
		c-0.3,0.6-0.8,1.1-1.4,1.5c-0.6,0.4-1.3,0.7-2.1,0.7c-0.6,0-1.1-0.1-1.6-0.4c-0.5-0.2-0.9-0.6-1.3-1c-0.4-0.4-0.6-0.9-0.9-1.5
		c-0.2-0.5-0.3-1-0.3-1.6h9.6l0-0.2c0-0.2,0-0.3,0-0.5v-0.4c0-0.9-0.1-1.8-0.4-2.6C389.4,135.1,389,134.4,388.5,133.8z M380.4,137.7
		c0-0.5,0.2-0.9,0.3-1.3c0.2-0.5,0.5-0.9,0.8-1.3c0.3-0.4,0.7-0.7,1.2-0.9c0.4-0.2,0.9-0.3,1.5-0.3c1.1,0,2,0.4,2.6,1.2
		c0.6,0.7,0.9,1.7,1,2.7H380.4z"/>
	<path class="st1" d="M413.7,141.2c-0.6,1-1.3,1.7-2.2,2.2c-0.9,0.5-1.8,0.7-2.8,0.7c-1.1,0-2.1-0.2-2.9-0.7
		c-0.9-0.5-1.6-1.1-2.2-1.9c-0.6-0.8-1.1-1.7-1.4-2.7c-0.3-1-0.5-2.1-0.5-3.3c0-1.1,0.2-2.2,0.5-3.3c0.3-1,0.8-1.9,1.4-2.7
		c0.6-0.8,1.4-1.4,2.2-1.9c0.9-0.5,1.9-0.7,3-0.7c0.5,0,1,0.1,1.5,0.2c0.5,0.1,0.9,0.3,1.3,0.6c0.4,0.2,0.7,0.5,1,0.8
		c0.3,0.3,0.5,0.6,0.7,0.9l0.1,0.2l1.8-1.5l-0.1-0.2c-0.3-0.5-0.7-1-1.2-1.4c-0.5-0.4-1-0.7-1.5-1c-0.6-0.3-1.2-0.5-1.8-0.7
		c-0.6-0.2-1.3-0.2-2-0.2c-1.3,0-2.6,0.3-3.7,0.8c-1.1,0.5-2.1,1.3-3,2.3c-0.8,1-1.5,2.1-2,3.4c-0.5,1.3-0.7,2.8-0.7,4.3
		c0,1.6,0.2,3,0.7,4.3c0.5,1.3,1.1,2.5,1.9,3.4c0.8,1,1.8,1.7,3,2.3c1.2,0.5,2.4,0.8,3.8,0.8c0.8,0,1.6-0.1,2.3-0.3
		c0.7-0.2,1.3-0.5,1.9-0.8c0.6-0.4,1.1-0.8,1.5-1.2c0.4-0.5,0.8-1,1.1-1.5l0.1-0.2l-1.7-1.3L413.7,141.2z"/>
	<path class="st1" d="M427.3,144.2c0-0.5,0-1.1,0-1.6v-5.8c0-0.8-0.1-1.6-0.4-2.2c-0.2-0.6-0.6-1.2-1-1.6c-0.4-0.4-0.9-0.7-1.5-0.9
		c-0.6-0.2-1.2-0.3-1.8-0.3c-1,0-2,0.2-2.8,0.6c-0.8,0.4-1.5,0.8-2,1.4l-0.1,0.1l1.2,1.6l0.2-0.2c0.4-0.4,0.9-0.8,1.4-1.1
		c0.6-0.3,1.2-0.4,1.8-0.4c0.9,0,1.7,0.3,2.1,0.8c0.5,0.5,0.7,1.3,0.7,2.4v0.2c-1,0-1.9,0-2.9,0.1c-1,0.1-1.9,0.3-2.7,0.6
		c-0.8,0.3-1.4,0.8-1.9,1.4c-0.5,0.6-0.7,1.5-0.7,2.6c0,0.8,0.1,1.4,0.4,2c0.3,0.5,0.6,1,1,1.3c0.4,0.3,0.9,0.6,1.4,0.7
		c0.5,0.1,1,0.2,1.4,0.2c1,0,1.8-0.2,2.5-0.6c0.6-0.3,1.1-0.8,1.5-1.5c0,0.2,0,0.3,0,0.5c0,0.4,0.1,0.7,0.1,1.1l0,0.2h2l0-0.3
		C427.4,145.2,427.4,144.8,427.3,144.2z M425.3,139.2v0.8c0,0.6-0.1,1.1-0.2,1.6c-0.2,0.5-0.4,1-0.7,1.3c-0.3,0.4-0.7,0.7-1.1,0.9
		c-0.7,0.3-1.6,0.4-2.4,0.2c-0.3-0.1-0.6-0.2-0.8-0.4c-0.2-0.2-0.4-0.4-0.6-0.7c-0.1-0.3-0.2-0.7-0.2-1.1c0-0.6,0.2-1,0.5-1.4
		c0.3-0.4,0.8-0.6,1.3-0.8c0.6-0.2,1.2-0.3,1.9-0.4c0.7-0.1,1.4-0.1,2.1-0.1H425.3z"/>
	<path class="st1" d="M444.9,131.8c-1,0-1.9,0.3-2.6,0.8c-0.6,0.4-1.1,1-1.5,1.7c-0.2-0.4-0.3-0.7-0.6-1c-0.3-0.4-0.6-0.7-0.9-0.9
		c-0.3-0.2-0.7-0.4-1.1-0.5c-1.3-0.3-2.5,0-3.5,0.6c-0.5,0.4-0.9,0.8-1.2,1.3c0-0.1,0-0.2,0-0.3c0-0.4,0-0.8-0.1-1.2l0-0.2h-2.1
		l0,0.2c0,0.5,0.1,1,0.1,1.5c0,0.6,0,1,0,1.4v10.6h2.1v-7c0-0.9,0.1-1.6,0.3-2.2c0.2-0.6,0.4-1.1,0.7-1.5c0.3-0.4,0.6-0.7,1-0.9
		c0.4-0.2,0.7-0.3,1.1-0.3c0.5,0,1,0.1,1.3,0.3c0.3,0.2,0.6,0.4,0.8,0.8c0.2,0.3,0.3,0.8,0.4,1.3c0.1,0.5,0.1,1.1,0.1,1.7v8h2.1
		v-7.3c0-0.6,0.1-1.2,0.2-1.8c0.1-0.6,0.3-1.1,0.5-1.5c0.2-0.4,0.6-0.8,0.9-1c0.4-0.3,0.9-0.4,1.4-0.4c1,0,1.7,0.4,2.1,1.2
		c0.4,0.8,0.7,1.9,0.7,3.3v7.6h2.1v-8.4c0-1.7-0.4-3.1-1.1-4.1C447.6,132.3,446.5,131.8,444.9,131.8z"/>
	<path class="st1" d="M463.4,133.8c-0.5-0.6-1.1-1.1-1.8-1.5c-0.7-0.4-1.6-0.5-2.5-0.5c-0.9,0-1.7,0.2-2.4,0.5
		c-0.7,0.4-1.4,0.9-1.9,1.5c-0.5,0.6-1,1.4-1.3,2.3c-0.3,0.9-0.5,1.8-0.5,2.9c0,1,0.2,2,0.5,2.9c0.3,0.9,0.7,1.6,1.3,2.3
		c0.5,0.6,1.2,1.2,2,1.5c0.8,0.4,1.6,0.5,2.5,0.5c1,0,1.9-0.2,2.8-0.7c0.9-0.5,1.7-1.2,2.4-2.2l0.1-0.2l-1.6-1.5l-0.1,0.2
		c-0.3,0.6-0.8,1.1-1.4,1.5c-0.6,0.4-1.3,0.7-2.1,0.7c-0.6,0-1.1-0.1-1.6-0.4c-0.5-0.2-0.9-0.6-1.3-1c-0.4-0.4-0.6-0.9-0.9-1.5
		c-0.2-0.5-0.3-1-0.3-1.6h9.6l0-0.2c0-0.2,0-0.3,0-0.5v-0.4c0-0.9-0.1-1.8-0.4-2.6C464.3,135.1,463.9,134.4,463.4,133.8z
		 M455.3,137.7c0-0.5,0.2-0.9,0.3-1.3c0.2-0.5,0.5-0.9,0.8-1.3c0.3-0.4,0.7-0.7,1.2-0.9c0.4-0.2,0.9-0.3,1.5-0.3
		c1.1,0,2,0.4,2.6,1.2c0.6,0.7,0.9,1.7,1,2.7H455.3z"/>
	<path class="st1" d="M474.7,131.8c-0.2,0-0.4,0-0.6,0c-0.9,0-1.7,0.3-2.4,0.8c-0.5,0.4-0.9,0.8-1.2,1.3c0-0.1,0-0.2,0-0.3
		c0-0.4,0-0.8-0.1-1.2l0-0.2h-2.1l0,0.2c0,0.5,0.1,1,0.1,1.5c0,0.6,0,1,0,1.4v10.6h2.1v-7c0-0.9,0.1-1.6,0.3-2.2
		c0.2-0.6,0.4-1.1,0.7-1.5c0.3-0.4,0.6-0.7,1-0.8c0.6-0.3,1.2-0.3,1.9-0.2c0.2,0,0.4,0.1,0.5,0.1l0.3,0.1l0.3-2.3l-0.2-0.1
		C475,131.9,474.8,131.8,474.7,131.8z"/>
	<path class="st1" d="M486.9,144.2c0-0.5,0-1.1,0-1.6v-5.8c0-0.8-0.1-1.6-0.4-2.2c-0.2-0.6-0.6-1.2-1-1.6c-0.4-0.4-0.9-0.7-1.5-0.9
		c-0.6-0.2-1.2-0.3-1.8-0.3c-1,0-1.9,0.2-2.8,0.6c-0.8,0.4-1.5,0.8-2,1.4l-0.1,0.1l1.2,1.6l0.2-0.2c0.4-0.4,0.9-0.8,1.4-1.1
		c0.6-0.3,1.2-0.4,1.8-0.4c0.9,0,1.7,0.3,2.1,0.8c0.5,0.5,0.7,1.3,0.7,2.4v0.2c-1,0-1.9,0-2.9,0.1c-1,0.1-1.9,0.3-2.7,0.6
		c-0.8,0.3-1.4,0.8-1.9,1.4c-0.5,0.6-0.7,1.5-0.7,2.6c0,0.8,0.1,1.4,0.4,2c0.3,0.5,0.6,1,1,1.3c0.4,0.3,0.9,0.6,1.4,0.7
		c0.5,0.1,1,0.2,1.4,0.2c1,0,1.8-0.2,2.5-0.6c0.6-0.3,1.1-0.8,1.5-1.5c0,0.2,0,0.3,0,0.5c0,0.4,0.1,0.7,0.1,1.1l0,0.2h2l0-0.3
		C486.9,145.2,486.9,144.8,486.9,144.2z M484.8,139.2v0.8c0,0.6-0.1,1.1-0.2,1.6c-0.2,0.5-0.4,1-0.7,1.3c-0.3,0.4-0.7,0.7-1.1,0.9
		c-0.7,0.3-1.6,0.4-2.4,0.2c-0.3-0.1-0.6-0.2-0.8-0.4c-0.2-0.2-0.4-0.4-0.6-0.7c-0.1-0.3-0.2-0.7-0.2-1.1c0-0.6,0.2-1,0.5-1.4
		c0.3-0.4,0.8-0.6,1.3-0.8c0.6-0.2,1.2-0.3,1.9-0.4c0.7-0.1,1.4-0.1,2.1-0.1H484.8z"/>
	<path class="st1" d="M498.2,139.2c-0.7-0.6-1.7-1.1-3.1-1.5c-0.9-0.2-1.6-0.5-2-0.8c-0.4-0.3-0.6-0.7-0.6-1.3
		c0-0.3,0.1-0.6,0.2-0.8c0.1-0.2,0.3-0.4,0.5-0.6c0.2-0.2,0.4-0.3,0.7-0.3c0.3-0.1,0.6-0.1,0.8-0.1c0.6,0,1.1,0.2,1.6,0.5
		c0.5,0.3,0.8,0.7,1.1,1.3l0.1,0.3l1.6-1.4l-0.1-0.2c-0.4-0.8-1-1.4-1.8-1.9c-1.3-0.7-2.8-0.8-4.1-0.4c-0.5,0.2-1,0.4-1.4,0.7
		c-0.4,0.3-0.7,0.8-1,1.3c-0.2,0.5-0.4,1.1-0.4,1.8c0,0.7,0.1,1.2,0.3,1.7c0.2,0.4,0.5,0.8,0.9,1.1c0.3,0.3,0.7,0.5,1.1,0.7
		c0.4,0.1,0.8,0.3,1.1,0.4c1.1,0.3,1.9,0.6,2.5,1c0.5,0.3,0.8,0.8,0.8,1.4c0,0.4-0.1,0.7-0.2,1c-0.1,0.3-0.3,0.5-0.5,0.6
		c-0.2,0.2-0.5,0.3-0.8,0.4c-0.3,0.1-0.6,0.1-1,0.1c-0.6,0-1.2-0.2-1.8-0.6c-0.5-0.4-1-0.8-1.2-1.4l-0.1-0.3l-1.7,1.4l0.1,0.2
		c0.5,0.9,1.3,1.6,2.1,2c0.9,0.4,1.7,0.6,2.7,0.6c0.5,0,1.1-0.1,1.6-0.2c0.5-0.1,1-0.4,1.5-0.8c0.4-0.3,0.8-0.8,1.1-1.4
		c0.3-0.5,0.4-1.2,0.4-2C499.2,140.7,498.9,139.9,498.2,139.2z"/>
</g>
<g>
	<path class="st2" d="M100.1,67.7c-6.1,0-11,10-11,22.3s4.9,23.7,11,23.7"/>
	<g>
		<path class="st2" d="M123.1,90.9c0-6.1-10-11-22.3-11s-23.7,4.9-23.7,11"/>
		<path class="st2" d="M123.1,90.8c0,6.1-10,11.1-22.3,11.1s-23.7-5-23.7-11.1"/>
	</g>
	<circle class="st2" cx="100.1" cy="90.7" r="23"/>
	<path class="st2" d="M100.1,67.7c6.1,0,11.1,10,11.1,22.3s-5,23.7-11.1,23.7"/>
</g>
<path class="st1" d="M139.5,36.7l-78.8,0c-7.1,0-12.9,5.9-12.9,13.1v31.3h19.1c3.4-15.2,17-25.3,33.2-25.3s29.8,10.1,33.2,25.3h19.1
	V49.8C152.5,42.6,146.6,36.7,139.5,36.7z"/>
<path class="st0" d="M100.1,125.6c-16.6,0-30.5-10.6-33.4-26.3H47.8v32.3c0,7.2,5.8,13.1,12.9,13.1l78.8,0c7.1,0,12.9-5.9,12.9-13.1
	V99.3h-18.9C130.6,115,116.8,125.6,100.1,125.6z"/>
</svg>
